<svg xmlns="http://www.w3.org/2000/svg" viewBox="0 0 300 300"><defs><style>.cls-1{fill:#fff;}</style></defs><title>DownIcon</title><g id="Layer_1" data-name="Layer 1"><path class="cls-1" d="M150,290C72.8,290,10,227.2,10,150S72.8,10,150,10,290,72.8,290,150,227.2,290,150,290Z"/><path d="M150,20a130,130,0,0,1,91.92,221.92A130,130,0,0,1,58.08,58.08,129.15,129.15,0,0,1,150,20m0-20A150,150,0,1,0,300,150,150,150,0,0,0,150,0Z"/></g><g id="Layer_2" data-name="Layer 2"><rect x="20.95" y="159.62" width="175.6" height="20" rx="10" ry="10" transform="matrix(0.54, 0.84, -0.84, 0.54, 192.39, -13.69)"/><rect x="105.95" y="159.62" width="175.6" height="20" rx="10" ry="10" transform="translate(441.29 98.67) rotate(122.81)"/></g></svg>